<svg width="18" height="22" viewBox="0 0 18 22" fill="none" xmlns="http://www.w3.org/2000/svg">
<path fill-rule="evenodd" clip-rule="evenodd" d="M2 7.08C2 4.27439 4.27439 2 7.08 2C9.88561 2 12.16 4.27439 12.16 7.08C12.16 9.88561 9.88561 12.16 7.08 12.16C4.27439 12.16 2 9.88561 2 7.08ZM7.08 1C3.72211 1 1 3.72211 1 7.08C1 10.4379 3.72211 13.16 7.08 13.16C8.5792 13.16 9.95166 12.6174 11.0117 11.7178L11.0672 11.7734L16.6472 17.3534L17.0008 17.7069L17.7079 16.9998L17.3543 16.6463L11.7743 11.0663L11.7187 11.0107C12.6177 9.95075 13.16 8.5787 13.16 7.08C13.16 3.72211 10.4379 1 7.08 1Z" fill="white"/>
<path d="M11.0117 11.7178L11.2769 11.4527L10.7691 11.4319L11.0117 11.7178ZM11.0672 11.7734L10.8021 12.0385L11.0672 11.7734ZM16.6472 17.3534L16.9124 17.0882L16.6472 17.3534ZM17.0008 17.7069L16.7356 17.9721H17.2659L17.0008 17.7069ZM17.7079 16.9998L17.9731 17.265V16.7346L17.7079 16.9998ZM17.3543 16.6463L17.0892 16.9114L17.3543 16.6463ZM11.7743 11.0663L12.0395 10.8011L11.7743 11.0663ZM11.7187 11.0107L11.4328 10.7681L11.4536 11.2758L11.7187 11.0107ZM7.08 1.625C4.06729 1.625 1.625 4.06729 1.625 7.08H2.375C2.375 4.4815 4.4815 2.375 7.08 2.375V1.625ZM12.535 7.08C12.535 4.06729 10.0927 1.625 7.08 1.625V2.375C9.6785 2.375 11.785 4.4815 11.785 7.08H12.535ZM7.08 12.535C10.0927 12.535 12.535 10.0927 12.535 7.08H11.785C11.785 9.6785 9.6785 11.785 7.08 11.785V12.535ZM1.625 7.08C1.625 10.0927 4.06729 12.535 7.08 12.535V11.785C4.4815 11.785 2.375 9.6785 2.375 7.08H1.625ZM1.375 7.08C1.375 3.92922 3.92922 1.375 7.08 1.375V0.625C3.515 0.625 0.625 3.515 0.625 7.08H1.375ZM7.08 12.785C3.92922 12.785 1.375 10.2308 1.375 7.08H0.625C0.625 10.645 3.515 13.535 7.08 13.535V12.785ZM10.7691 11.4319C9.77424 12.2761 8.48703 12.785 7.08 12.785V13.535C8.67136 13.535 10.1291 12.9587 11.2543 12.0038L10.7691 11.4319ZM11.3324 11.5082L11.2769 11.4527L10.7465 11.983L10.8021 12.0385L11.3324 11.5082ZM16.9124 17.0882L11.3324 11.5082L10.8021 12.0385L16.3821 17.6185L16.9124 17.0882ZM17.2659 17.4417L16.9124 17.0882L16.3821 17.6185L16.7356 17.9721L17.2659 17.4417ZM17.4427 16.7346L16.7356 17.4417L17.2659 17.9721L17.9731 17.265L17.4427 16.7346ZM17.0892 16.9114L17.4427 17.265L17.9731 16.7346L17.6195 16.3811L17.0892 16.9114ZM11.5092 11.3314L17.0892 16.9114L17.6195 16.3811L12.0395 10.8011L11.5092 11.3314ZM11.4536 11.2758L11.5092 11.3314L12.0395 10.8011L11.9839 10.7455L11.4536 11.2758ZM12.785 7.08C12.785 8.48656 12.2765 9.77339 11.4328 10.7681L12.0047 11.2532C12.959 10.1281 13.535 8.67083 13.535 7.08H12.785ZM7.08 1.375C10.2308 1.375 12.785 3.92922 12.785 7.08H13.535C13.535 3.515 10.645 0.625 7.08 0.625V1.375Z" fill="white"/>
<path d="M1 21H17" stroke="white" stroke-width="1.5" stroke-linecap="square"/>
</svg>
